<svg width="180" height="180" viewBox="0 0 180 180" fill="none" xmlns="http://www.w3.org/2000/svg">
  <defs>
    <linearGradient id="grad" x1="0%" y1="0%" x2="100%" y2="100%">
      <stop offset="0%" stop-color="#f97316" />
      <stop offset="50%" stop-color="#fb8d39" />
      <stop offset="100%" stop-color="#0ea5e9" />
    </linearGradient>
    <linearGradient id="bg" x1="0%" y1="0%" x2="100%" y2="100%">
      <stop offset="0%" stop-color="#111827" />
      <stop offset="100%" stop-color="#0b1323" />
    </linearGradient>
    <filter id="shadow" x="-20%" y="-20%" width="140%" height="140%">
      <feDropShadow dx="0" dy="8" stdDeviation="8" flood-color="rgba(0,0,0,0.28)" />
    </filter>
  </defs>
  <rect width="180" height="180" rx="32" fill="url(#bg)" />
  <g filter="url(#shadow)">
    <path d="M60 128c-6 0-11-5-11-11V63c0-6 5-11 11-11h16l14 16 14-16h16c6 0 11 5 11 11v54c0 6-5 11-11 11H60z" fill="url(#grad)" />
  </g>
  <path d="M78 110c0-5 4-9 9-9h6c5 0 9 4 9 9 0 5-4 9-9 9h-6c-5 0-9-4-9-9z" fill="#0b1323" opacity="0.82"/>
  <circle cx="78" cy="74" r="6" fill="#fff" opacity="0.95"/>
  <circle cx="102" cy="74" r="6" fill="#fff" opacity="0.95"/>
  <rect x="66" y="54" width="48" height="12" rx="6" fill="#0b1323" opacity="0.3"/>
</svg>
